<svg height="384" width="384" xmlns="http://www.w3.org/2000/svg" style=""><rect id="backgroundrect" width="100%" height="100%" x="0" y="0" fill="none" stroke="none"/><g class="currentLayer" style=""><title>Layer 1</title><path d="m367.4764397740364,154.66796875 h-352 c-8.83203125,0 -16,-7.167969226837158 -16,-16 s7.167969226837158,-16 16,-16 h352 c8.83203125,0 16,7.167969226837158 16,16 s-7.167969226837158,16 -16,16 zm0,0 " id="svg_1" class="" fill="#ffffff" fill-opacity="1"/><path d="m368,32.52356022596359 h-352 c-8.83203125,0 -16,-7.167969226837158 -16,-16 s7.167969226837158,-16 16,-16 h352 c8.83203125,0 16,7.167969226837158 16,16 s-7.167969226837158,16 -16,16 zm0,0 " id="svg_2" class="" fill="#ffffff" fill-opacity="1"/><path d="m368 277.332031h-352c-8.832031 0-16-7.167969-16-16s7.167969-16 16-16h352c8.832031 0 16 7.167969 16 16s-7.167969 16-16 16zm0 0" id="svg_3" class="selected" fill="#ffffff" fill-opacity="1"/></g></svg>